<?xml version="1.0" standalone="no"?><!DOCTYPE svg PUBLIC "-//W3C//DTD SVG 1.1//EN" "http://www.w3.org/Graphics/SVG/1.1/DTD/svg11.dtd"><svg t="1556875149059" class="icon" style="" viewBox="0 0 1024 1024" version="1.1" xmlns="http://www.w3.org/2000/svg" p-id="12988" xmlns:xlink="http://www.w3.org/1999/xlink" width="300" height="300"><defs><style type="text/css">html, * { user-select: text !important; }
</style></defs><path d="M768 768V608a32 32 0 1 1 64 0V768h160a32 32 0 1 1 0 64H832v160a32 32 0 1 1-64 0V832H608a32 32 0 1 1 0-64H768z m-128 256h96H64a64 64 0 0 1-64-64V320l256-320h512a64 64 0 0 1 64 64v384a32 32 0 1 1-64 0V64H320v320H64v576h576a32 32 0 1 1 0 64zM96 320H256V96L96 320z" p-id="12989"></path></svg>