<?xml version="1.0" standalone="no"?><!DOCTYPE svg PUBLIC "-//W3C//DTD SVG 1.1//EN" "http://www.w3.org/Graphics/SVG/1.1/DTD/svg11.dtd"><svg t="1557218603400" class="icon" style="" viewBox="0 0 1024 1024" version="1.1" xmlns="http://www.w3.org/2000/svg" p-id="5150" xmlns:xlink="http://www.w3.org/1999/xlink" width="300" height="300"><defs><style type="text/css">html, * { user-select: text !important; }
</style></defs><path d="M511.3 67c-245.8 0-445 199.2-445 445s199.2 445 445 445 445-199.2 445-445S757 67 511.3 67z m300 445c0 17.7-14.3 32-32 32h-236v236c0 17.7-14.3 32-32 32s-32-14.3-32-32V544h-236c-17.7 0-32-14.3-32-32s14.3-32 32-32h236V244c0-17.7 14.3-32 32-32s32 14.3 32 32v236h236c17.7 0 32 14.3 32 32z" p-id="5151"></path></svg>