<?xml version="1.0" standalone="no"?><!DOCTYPE svg PUBLIC "-//W3C//DTD SVG 1.1//EN" "http://www.w3.org/Graphics/SVG/1.1/DTD/svg11.dtd"><svg t="1557283645503" class="icon" style="" viewBox="0 0 1024 1024" version="1.1" xmlns="http://www.w3.org/2000/svg" p-id="8719" xmlns:xlink="http://www.w3.org/1999/xlink" width="16" height="16"><defs><style type="text/css"></style></defs><path d="M127.712195 288.73403v445.422676h75.015508V288.73403H127.712195zM825.416687 286.407032v447.749674h70.358441V286.407032h-70.358441zM289.069163 202.536856H739.147882v-75.087139H289.069163v75.087139zM289.069163 895.583259H734.491839v-75.081H289.069163v75.081z" p-id="8720" fill="#000000"></path><path d="M703.602318 703.267185v256.002558h256.001535V703.267185H703.602318z m170.613795 170.776501h-82.658581v-85.383646h82.658581v85.383646zM703.186855 63.620993v256.002558h256.416998V63.620993H703.186855z m170.274059 172.562171H786.209734v-86.282109h87.25118v86.282109zM63.956126 63.620993v256.002558h256.002558V63.620993H63.956126z m170.613796 170.777525h-85.308945v-85.389786h85.308945v85.389786zM63.956126 703.267185v256.002558h256.002558V703.267185H63.956126z m170.613796 173.423795h-85.308945v-88.03094h85.308945v88.03094zM387.329071 335.139943l302.149574 302.149575c15.414061 15.414061 15.414061 40.388872 0 55.803957-15.415085 15.416108-40.392966 15.416108-55.809073 0L331.521021 390.944923c-15.416108-15.416108-15.416108-40.388872 0-55.80498 15.415085-15.416108 40.391942-15.416108 55.80805 0z" p-id="8721" fill="#000000"></path></svg>