<?xml version="1.0" standalone="no"?><!DOCTYPE svg PUBLIC "-//W3C//DTD SVG 1.1//EN" "http://www.w3.org/Graphics/SVG/1.1/DTD/svg11.dtd"><svg t="1556606845852" class="icon" style="" viewBox="0 0 1024 1024" version="1.1" xmlns="http://www.w3.org/2000/svg" p-id="2364" xmlns:xlink="http://www.w3.org/1999/xlink" width="300" height="300"><defs><style type="text/css">html, * { user-select: text !important; }
</style></defs><path d="M336 544c-79.392 0-144 64.608-144 144s64.608 144 144 144 144-64.608 144-144-64.608-144-144-144z m0 224c-44.096 0-80-35.872-80-80s35.904-80 80-80 80 35.872 80 80-35.904 80-80 80z m464-512H588.576a32 32 0 1 0 0 64H800a32 32 0 1 0 0-64z m0 320H588.576a32 32 0 1 0 0 64H800a32 32 0 1 0 0-64z m0-192H588.576a32 32 0 1 0 0 64H800a32 32 0 1 0 0-64z m0 328H588.576a32 32 0 1 0 0 64H800a32 32 0 1 0 0-64zM440 235.808L319.008 384.416l-71.04-80.352a32 32 0 0 0-47.936 42.4l71.008 80.352a63.648 63.648 0 0 0 48.032 21.632 63.36 63.36 0 0 0 49.536-23.584L489.6 276.192a32 32 0 0 0-49.6-40.384z" p-id="2365"></path><path d="M896 64H128c-35.296 0-64 28.704-64 64v768c0 35.296 28.704 64 64 64h768c35.296 0 64-28.704 64-64V128c0-35.296-28.704-64-64-64zM128 896V128h768l0.064 768H128z" p-id="2366"></path></svg>