<?xml version="1.0" standalone="no"?><!DOCTYPE svg PUBLIC "-//W3C//DTD SVG 1.1//EN" "http://www.w3.org/Graphics/SVG/1.1/DTD/svg11.dtd"><svg class="icon" width="300px" height="300.00px" viewBox="0 0 1024 1024" version="1.1" xmlns="http://www.w3.org/2000/svg"><path fill="#ffffff" d="M916.348343 200.162743c0.731429-5.8368 1.258057-11.761371 1.258057-17.773714 0-6.026971-0.541257-11.951543-1.258057-17.788343l38.078171-30.178743a9.172114 9.172114 0 0 0 2.165029-11.6736l-36.015543-63.195429c-2.2528-3.935086-6.919314-5.558857-10.986057-3.935085l-44.836572 18.344228a136.250514 136.250514 0 0 0-30.427428-17.978514L827.567543 7.650743A9.289143 9.289143 0 0 0 818.5856 0h-72.045714a9.128229 9.128229 0 0 0-8.9088 7.650743l-6.7584 48.3328c-10.971429 4.666514-21.152914 10.678857-30.427429 17.978514l-44.836571-18.3296a8.952686 8.952686 0 0 0-10.971429 3.920457l-36.030171 63.195429a9.216 9.216 0 0 0 2.165028 11.658971l38.005029 30.178743c-0.731429 5.8368-1.272686 11.761371-1.272686 17.788343 0 6.012343 0.541257 11.936914 1.272686 17.773714l-38.005029 30.193372a9.172114 9.172114 0 0 0-2.165028 11.6736l36.015543 63.195428c2.2528 3.920457 6.933943 5.558857 10.986057 3.920457l44.836571-18.3296c9.274514 7.197257 19.456 13.312 30.427429 17.963886l6.7584 48.3328c0.731429 4.286171 4.417829 7.665371 8.923428 7.665372h72.016457c4.490971 0 8.192-3.3792 8.923429-7.665372l6.729143-48.3328a132.476343 132.476343 0 0 0 30.442057-17.963886l44.836571 18.3296c4.125257 1.579886 8.777143-0.073143 10.986058-3.935085l36.015542-63.166172a9.216 9.216 0 0 0-2.165028-11.6736l-37.9904-30.178743v-0.014628z m-133.792914 46.065371c-16.735086 0-32.782629-6.743771-44.617143-18.724571a64.073143 64.073143 0 0 1-18.402743-45.114514 64.073143 64.073143 0 0 1 18.417371-45.129143 62.698057 62.698057 0 0 1 44.602515-18.724572c16.735086 0.014629 32.768 6.743771 44.602514 18.724572a64.073143 64.073143 0 0 1 18.417371 45.129143 64.073143 64.073143 0 0 1-18.432 45.114514 62.698057 62.698057 0 0 1-44.587885 18.724571z m-279.054629 46.6944c1.053257-8.543086 1.828571-17.217829 1.828571-26.024228 0-8.8064-0.775314-17.481143-1.828571-26.024229l55.222857-44.163657a13.5168 13.5168 0 0 0 3.130514-17.071543l-52.224-92.496457a12.785371 12.785371 0 0 0-15.915885-5.7344l-65.024 26.814171a197.163886 197.163886 0 0 0-44.119772-26.287542L374.784 11.205486C373.613714 4.944457 368.259657 0 361.735314 0h-104.448a13.268114 13.268114 0 0 0-12.9024 11.205486l-9.801143 70.729143a192.234057 192.234057 0 0 0-44.119771 26.287542L125.44 81.408a12.931657 12.931657 0 0 0-15.930514 5.7344l-52.224 92.481829a13.560686 13.560686 0 0 0 3.130514 17.071542l55.105829 44.178286c-1.141029 8.630857-1.755429 17.320229-1.828572 26.038857 0 8.791771 0.775314 17.466514 1.828572 26.0096l-55.105829 44.178286a13.502171 13.502171 0 0 0-3.130514 17.086171l52.224 92.4672c3.262171 5.7344 10.049829 8.148114 15.930514 5.7344l65.024-26.814171a197.163886 197.163886 0 0 0 44.119771 26.287543l9.786515 70.729143a13.268114 13.268114 0 0 0 12.917028 11.205485h104.448a13.268114 13.268114 0 0 0 12.9024-11.205485l9.801143-70.729143a192.234057 192.234057 0 0 0 44.119772-26.287543l65.024 26.814171c5.880686 2.282057 12.653714 0 15.930514-5.7344l52.209371-92.4672a13.560686 13.560686 0 0 0-3.130514-17.086171l-55.0912-44.178286z m-193.989486 67.393829c-50.527086 0-91.384686-41.764571-91.384685-93.418057 0-51.638857 40.8576-93.403429 91.384685-93.403429 50.512457 0 91.370057 41.764571 91.370057 93.403429s-40.8576 93.418057-91.370057 93.418057z m256.117029 373.5552v81.159314h-109.173029v-81.159314H147.924114v76.3904H57.738971v-173.494857h398.716343v-49.590857h109.187657v49.590857h393.976686v173.494857h-85.445486v-76.3904H565.628343z m234.496 146.914743H994.742857V1024H800.109714v-143.213714h0.014629z m-385.418972 0h194.618515V1024H414.690743v-143.213714h0.014628zM29.257143 880.786286h194.618514V1024H29.257143v-143.213714z" /></svg>