<?xml version="1.0" standalone="no"?><!DOCTYPE svg PUBLIC "-//W3C//DTD SVG 1.1//EN" "http://www.w3.org/Graphics/SVG/1.1/DTD/svg11.dtd"><svg class="icon" width="330px" height="330.00px" viewBox="0 0 1024 1024" version="1.1" xmlns="http://www.w3.org/2000/svg"><path  d="M992 576h-32V32c0-19.2-12.8-32-32-32H288c-19.2 0-32 12.8-32 32v96H96c-19.2 0-32 12.8-32 32v416H32c-19.2 0-32 12.8-32 32v384c0 19.2 12.8 32 32 32h960c19.2 0 32-12.8 32-32V608c0-19.2-12.8-32-32-32zM896 64v512H652.8c-12.8 0-25.6 12.8-25.6 32v96h-224v-96c0-19.2-19.2-32-32-32H320V64h576zM128 192h128v384H128V192z m832 768H64V640h275.2v96c0 19.2 12.8 32 32 32h288c19.2 0 32-12.8 32-32v-96H960v320zM416 256h384c19.2 0 32-12.8 32-32s-12.8-32-32-32H416c-19.2 0-32 12.8-32 32s12.8 32 32 32z m0 192h384c19.2 0 32-12.8 32-32s-12.8-32-32-32H416c-19.2 0-32 12.8-32 32s12.8 32 32 32z" /></svg>