<?xml version="1.0" standalone="no"?><!DOCTYPE svg PUBLIC "-//W3C//DTD SVG 1.1//EN" "http://www.w3.org/Graphics/SVG/1.1/DTD/svg11.dtd"><svg class="icon" width="330px" height="330.00px" viewBox="0 0 1024 1024" version="1.1" xmlns="http://www.w3.org/2000/svg"><path d="M109.5936 384.3584L479.2576 556.8c20.3008 9.472 57.984 9.472 78.2848 0l369.664-172.4544-369.664-172.4544c-20.3008-9.472-57.984-9.472-78.2848 0L109.5936 384.3584z m-35.456 25.8304c-30.5792-14.272-30.592-37.3888 0-51.6736l388.8896-181.4144c30.5792-14.2592 80.1536-14.272 110.7456 0L962.6496 358.528c30.592 14.272 30.6048 37.4016 0 51.6736L573.7856 591.616c-30.592 14.272-80.1664 14.2848-110.7584 0L74.1504 410.1888zM109.5936 679.9872l369.664 172.4416c20.3008 9.472 57.984 9.472 78.2848 0l369.664-172.4416-104.192-48.6144-232.9984 108.6848c-40.8832 19.072-102.336 19.072-143.232 0l-232.9856-108.6848-104.192 48.6144z m104.192-90.9952L463.04 705.28c30.592 14.272 80.1664 14.2592 110.7456 0l249.2288-116.2752 139.648 65.152c30.592 14.272 30.6048 37.4016 0 51.6736l-388.864 181.4144c-30.592 14.272-80.1664 14.272-110.7584 0L74.1504 705.8176c-30.592-14.272-30.6048-37.3888 0-51.6736l139.648-65.152zM226.8672 482.8928L109.5936 537.6l369.664 172.4544c20.3008 9.472 57.984 9.472 78.2848 0L927.2064 537.6l-117.2736-54.7072-219.9168 102.592c-40.8832 19.072-102.336 19.072-143.232 0l-219.904-102.592z m0-42.368l236.16 110.1568c30.592 14.2848 80.1664 14.272 110.7456 0l236.16-110.1696 152.7168 71.2576c30.592 14.2592 30.6048 37.3888 0 51.6608l-388.864 181.4272c-30.592 14.2592-80.1664 14.272-110.7584 0L74.1504 563.4304c-30.592-14.2592-30.6048-37.3888 0-51.6608l152.7168-71.2576z" /></svg>