<?xml version="1.0" standalone="no"?><!DOCTYPE svg PUBLIC "-//W3C//DTD SVG 1.1//EN" "http://www.w3.org/Graphics/SVG/1.1/DTD/svg11.dtd"><svg t="1557731919200" class="icon" style="" viewBox="0 0 1027 1024" version="1.1" xmlns="http://www.w3.org/2000/svg" p-id="2756" xmlns:xlink="http://www.w3.org/1999/xlink" width="330.966796875" height="330"><defs><style type="text/css">html, * { user-select: text !important; }
</style></defs><path d="M514.045954 1024C231.704296 1024 2.045954 794.341658 2.045954 512S231.704296 0 514.045954 0s512 229.658342 512 512-229.658342 512-512 512z m0-967.224775c-251.140859 0-455.224775 204.083916-455.224775 455.224775s204.083916 455.224775 455.224775 455.224775 455.224775-204.083916 455.224775-455.224775-204.083916-455.224775-455.224775-455.224775z" p-id="2757"></path><path d="M879.76024 604.579421c5.626374 38.361638-71.096903 228.635365-124.803197 244.491508-53.194805 16.367632-318.657343-77.746254-324.283716-120.1998-12.275724-92.579421 141.170829-189.250749 209.198801-199.48052 61.89011-8.695305 234.261738 36.827173 239.888112 75.188812z m-288.479521-10.741259c-20.971029 23.528472 70.585415 33.246753 81.838162 31.712288 10.741259-1.534466 47.056943-43.988012 39.896104-49.102898-5.626374-3.58042-45.522478-12.787213-65.470529-16.87912-7.672328-1.534466-15.856144 0-21.994006 4.603396-12.787213 8.183816-24.03996 18.413586-34.269731 29.666334m122.757243 21.994006c-14.833167 24.03996 69.050949 43.988012 78.257742 45.010989 9.206793 1.022977 25.062937-14.321678 31.712288-20.971029 6.649351-6.137862 8.695305-15.344655 3.58042-24.03996-4.603397-7.160839-58.821179-26.085914-77.234766-32.735265-4.091908-1.534466-8.695305-0.511489-11.764235 2.557443-6.137862 5.626374-15.344655 15.344655-24.551449 30.177822m-12.275724 154.981019c7.672328 1.022977 15.344655-1.534466 20.971029-7.672328 14.321678-15.344655 40.919081-46.033966 51.148851-65.470529 2.045954-4.091908 1.534466-9.206793-2.045954-12.787213-17.390609-16.879121-66.493506-26.597403-86.953047-30.177822-5.626374-1.022977-11.252747 1.022977-15.344655 5.114885-29.666334 28.643357-51.66034 48.591409-58.309691 70.073926-2.045954 7.160839 1.534466 14.321678 7.672328 16.879121 19.436563 6.137862 63.424575 20.971029 82.861139 24.03996z m-209.71029-98.205794c-45.010989 45.010989 41.942058 57.286713 62.913087 55.752247 16.879121-1.022977 71.096903-63.424575 75.188811-76.211788 3.58042-10.741259-56.263736-27.108891-71.608391-30.689311-2.557443-0.511489-5.114885-0.511489-7.16084 1.022977-7.672328 4.603397-26.085914 16.879121-59.332667 50.125875" p-id="2758"></path><path d="M436.811189 792.295704c-2.045954-1.534466-4.091908-2.557443-6.137862-4.091908-81.326673-7.672328-131.964036-26.085914-150.889111-40.407592v-97.182817c29.154845 14.321678 70.073926 24.551449 115.084915 31.200799 3.58042-12.275724 9.206793-25.062937 16.367632-37.338662-69.562438-8.695305-113.55045-25.574426-130.941059-38.873126V504.839161c53.194805 23.016983 143.216783 30.177822 229.146853 30.177822h15.344656c34.26973-21.482517 70.073926-37.338661 99.228771-43.476523-33.246753 3.58042-71.608392 5.626374-114.573427 5.626373-127.360639 0-204.595405-18.413586-229.146853-33.758242V336.047952c54.217782 26.597403 147.82018 38.873127 236.819181 38.873127s182.08991-12.275724 236.819181-38.873127v126.337662h-0.511489c-15.856144 8.695305-50.637363 18.413586-100.251748 25.574426 40.407592-1.022977 97.694306 9.718282 147.82018 25.062937V286.433566h-0.511489v-5.114885c0-64.447552-147.308691-94.113886-283.876123-94.113886S232.727273 216.871129 232.727273 281.318681c0 2.045954 0 3.58042 0.511488 5.626374h-0.511488v473.126873h7.160839c30.177822 48.591409 153.446553 71.096903 269.554445 71.096903h4.603397c-31.712288-13.298701-59.332667-27.108891-77.234765-38.873127zM272.623377 281.318681c0-5.114885 15.344655-20.45954 62.913087-33.758241 48.07992-13.81019 112.527473-20.971029 181.066933-20.971029s132.987013 7.672328 181.066933 20.971029c47.568432 13.298701 62.913087 28.643357 62.913087 33.758241 0 1.022977-1.022977 3.068931-3.068931 5.626374h-4.603397v4.091908c-8.695305 7.160839-26.085914 15.856144-55.240759 24.551449-48.07992 13.81019-112.527473 20.971029-181.066933 20.971029s-132.987013-7.672328-181.066933-20.971029c-29.666334-8.183816-46.545455-17.390609-55.24076-24.551449V286.433566h-4.603396c-2.045954-2.045954-3.068931-4.091908-3.068931-5.114885z" p-id="2759"></path></svg>