<?xml version="1.0" standalone="no"?><!DOCTYPE svg PUBLIC "-//W3C//DTD SVG 1.1//EN" "http://www.w3.org/Graphics/SVG/1.1/DTD/svg11.dtd"><svg t="1557731927856" class="icon" style="" viewBox="0 0 1024 1024" version="1.1" xmlns="http://www.w3.org/2000/svg" p-id="2880" xmlns:xlink="http://www.w3.org/1999/xlink" width="330" height="330"><defs><style type="text/css">html, * { user-select: text !important; }
</style></defs><path d="M570.612535 495.532961c61.954825 0 73.542363 48.056779 74.636353 53.544232-0.262558 1.470322-0.883944 2.774358-0.883944 4.288439v147.032215H496.492545v-147.032215c0-0.936455-0.463852-1.776639-0.568875-2.660583 0.157535-0.68265 0.568875-1.155253 0.673898-1.785391 0.367581-2.187979 9.819652-53.386697 74.014967-53.386697m420.267082-210.509874L585.447035 4.287827c-0.210046-0.105023-0.472604-0.157535-0.630138-0.262558-1.619105-1.05023-3.448256-1.619105-5.216143-2.301754-1.46157-0.525115-2.818117-1.312788-4.28844-1.566593-1.452818-0.262558-2.861877-0.052512-4.270935-0.052512-1.934174-0.052512-3.815836-0.210046-5.741258 0.157535-1.102742 0.262558-2.14422 0.892696-3.23821 1.312788-2.14422 0.726409-4.174665 1.400307-6.056327 2.660582-0.157535 0.157535-0.367581 0.157535-0.577626 0.262558L155.351549 290.983143a26.211993 26.211993 0 0 0-6.056327 36.495496 26.045707 26.045707 0 0 0 21.249656 10.939897c1.715376 0 3.23821-1.260276 4.953585-1.575345 2.503048 0.787673 5.014849 1.575345 7.832967 1.575345H274.666442v228.801382h52.196436V319.164318h-1.356547c0.577627-2.240491 1.356547-4.437222 1.356547-6.896511a26.133226 26.133226 0 0 0-26.098218-26.141978H251.911456L570.875092 57.727036 900.691106 286.125829h-48.590646a26.098218 26.098218 0 0 0-26.098219 26.141978c0 1.356547 0.525115 2.564312 0.72641 3.920859-0.210046 1.312788-0.726409 2.5118-0.72641 3.868347v380.349586h-129.440861v-147.032215c0-0.840184-0.420092-1.522834-0.472603-2.310506 0.936455-3.553279 1.251524-7.264092 0.568875-11.079928-5.951304-33.467333-39.97876-96.734945-126.045117-96.734945-86.223892 0-119.787496 63.372635-125.476243 96.944991-0.472604 2.660583-0.105023 5.224895 0.262558 7.789207-0.420092 1.829151-1.09399 3.500767-1.09399 5.382429v173.182945A26.098218 26.098218 0 0 0 470.394326 752.690555h375.177203c5.119872 0 9.714629-1.881662 13.731759-4.445974 10.799866-3.23821 18.886638-12.865319 18.886638-24.732919V338.409784h89.155784a25.818157 25.818157 0 0 0 18.842879-8.209298c4.375959-1.881662 8.401841-4.603509 11.324981-8.839437a26.185737 26.185737 0 0 0-6.633953-36.337962" p-id="2881"></path><path d="M469.764188 971.488495c-24.820438-2.415529-127.051588-78.81977-182.039885-119.883767-41.309051-30.824254-73.874936-55.137081-91.877631-65.061756-12.383963-6.826496-26.955906-10.292255-43.392007-10.292255-22.422413 0-45.833792 6.458915-65.910692 14.178107L122.383076 643.554143c22.002321-10.81737 44.162176-16.331078 66.068226-16.331078 39.016049 0 65.44684 17.643866 65.919443 17.643865l197.066928 191.246903c41.466585 40.328836 126.158892 42.376785 142.761279 42.376785 14.151851 0 49.47459-8.139283 126.578984-26.728356 46.297644-11.184951 116.269225-28.041144 129.537133-28.093655 0.472604 0.210046 0.988967 0.787673 1.566593 1.575345-168.982025 73.25355-352.842309 145.929474-382.126226 146.244543m379.675689-200.383905c-17.792648 0.105023-65.079259 11.289974-140.730835 29.563977-43.698324 10.554813-103.535185 24.995477-114.501338 25.310546-31.419384 0-85.742537-7.351611-106.598356-27.621052L287.881837 604.800652c-1.566593-1.207765-40.320084-30.089093-99.421784-30.089093-34.132479 0-68.203694 9.504582-101.242182 28.198679a26.054459 26.054459 0 0 0-12.541498 16.593635L22.654975 832.438028a26.255753 26.255753 0 0 0 10.038449 27.463517c8.53312 6.301381 20.085651 6.668961 28.977599 1.102742 14.309385-8.979467 58.427802-32.242064 90.783642-32.242064 7.649176 0 13.845534 1.312788 18.527809 3.885851 14.773237 8.139283 49.264544 33.922433 85.786296 61.175904C377.308931 983.828698 436.620676 1024 469.554142 1024c55.662196 0 362.924518-133.011643 423.95164-159.687488a26.247001 26.247001 0 0 0 15.552157-26.098218c-2.389273-32.294576-22.002321-67.109704-59.618062-67.109704" p-id="2882"></path></svg>