<?xml version="1.0" standalone="no"?><!DOCTYPE svg PUBLIC "-//W3C//DTD SVG 1.1//EN" "http://www.w3.org/Graphics/SVG/1.1/DTD/svg11.dtd"><svg t="1557731952025" class="icon" style="" viewBox="0 0 1131 1024" version="1.1" xmlns="http://www.w3.org/2000/svg" p-id="3003" xmlns:xlink="http://www.w3.org/1999/xlink" width="364.482421875" height="330"><defs><style type="text/css">html, * { user-select: text !important; }
</style></defs><path d="M1009.36842119 535.68421016v307.89473731c0 37.89473643-30.78947373 71.05263135-71.05263135 71.05263134H180.42105254c-40.26315762 0-71.05263135-30.78947373-71.05263135-71.05263135V535.68421016h900m47.3684212-47.36842032H62v355.26315763c0 66.31578984 52.10526357 118.42105253 118.42105253 118.42105253h757.89473731c66.31578984 0 118.42105253-52.10526357 118.42105254-118.42105253V488.31578984zM305.94736865 488.31578984c-14.21052627-33.15789492-21.31578984-68.68421016-21.31578984-106.57894746C284.63157881 230.15789492 407.78947373 107 559.36842119 107s274.73684238 123.15789492 274.73684238 274.73684238c0 37.89473643-7.10526357 73.42105253-21.31578984 106.57894746h49.73684239c11.84210508-33.15789492 18.94736865-68.68421016 18.94736776-106.57894746C879.10526357 206.47368388 734.63157881 62 559.36842119 62S239.63157881 206.47368388 239.63157881 381.73684239c0 37.89473643 7.10526357 73.42105253 18.94736865 106.57894745h47.36842119z" p-id="3004"></path><path d="M62 275.15789492v165.78947373h47.36842119v-118.42105253h165.78947373V275.15789492zM843.57894746 275.15789492v47.3684212h165.78947373v118.42105253h47.36842119V275.15789492zM687.26315761 206.47368388c9.47368388-9.47368388 9.47368388-23.68421016 1e-8-33.15789404-9.47368388-9.47368388-23.68421016-9.47368388-33.15789405 0l-94.73684238 99.47368389-97.10526358-97.10526357c-9.47368388-9.47368388-23.68421016-9.47368388-33.15789404 0-9.47368388 9.47368388-9.47368388 23.68421016 0 33.15789492l97.1052627 97.10526357h-104.21052627v47.36842119H535.68421016v35.52631524h-113.68421016v47.36842119H535.68421016V512c0 11.84210508 9.47368388 23.68421016 23.68421103 23.68421016s23.68421016-9.47368388 23.68421016-23.68421016v-75.78947373h113.68421103v-47.36842119H583.05263135v-35.52631524h113.68421103v-47.36842119h-104.21052626l94.73684149-99.47368477z" p-id="3005"></path></svg>