<?xml version="1.0" standalone="no"?><!DOCTYPE svg PUBLIC "-//W3C//DTD SVG 1.1//EN" "http://www.w3.org/Graphics/SVG/1.1/DTD/svg11.dtd"><svg t="1558255734580" class="icon" style="" viewBox="0 0 1024 1024" version="1.1" xmlns="http://www.w3.org/2000/svg" p-id="2852" xmlns:xlink="http://www.w3.org/1999/xlink" width="330" height="330"><defs><style type="text/css">html, * { user-select: text !important; }
</style></defs><path d="M875.52 783.36l-15.36-81.92 56.32-40.96 56.32 40.96v51.2zM51.2 936.96V87.04l194.56 307.2 56.32 15.36-25.6 133.12 81.92 128-51.2 107.52 102.4-117.76-102.4-138.24 51.2-92.16 92.16 30.72 71.68 158.72 250.88 112.64 194.56 199.68z m691.2-163.84l-220.16-102.4-102.4-168.96-35.84-15.36-25.6 35.84 102.4 143.36-194.56 179.2 40.96-174.08-81.92-117.76 15.36-107.52-30.72-5.12-107.52-174.08v619.52l742.4-5.12z m-117.76-179.2l61.44-81.92 61.44 30.72 5.12 46.08-51.2 66.56zM491.52 378.88l61.44-81.92 117.76 40.96v46.08l-112.64 66.56zM240.64 266.24l25.6-87.04h61.44l30.72 61.44-25.6 25.6H240.64z" p-id="2853"></path></svg>