<?xml version="1.0" standalone="no"?><!DOCTYPE svg PUBLIC "-//W3C//DTD SVG 1.1//EN" "http://www.w3.org/Graphics/SVG/1.1/DTD/svg11.dtd"><svg t="1557927691501" class="icon" style="" viewBox="0 0 1024 1024" version="1.1" xmlns="http://www.w3.org/2000/svg" p-id="2875" xmlns:xlink="http://www.w3.org/1999/xlink" width="330" height="330"><defs><style type="text/css">html, * { user-select: text !important; }
</style></defs><path d="M871.424 1024H152.576c-54.272 0-98.304-44.032-98.304-98.304V98.304C54.784 44.032 98.816 0 152.576 0h718.336c54.272 0 98.304 44.032 98.304 98.304v827.904c0 53.76-44.032 97.792-97.792 97.792z" p-id="2876"></path><path d="M283.136 271.36c0-23.04-18.432-41.472-41.472-41.472s-41.472 18.432-41.472 41.472v0.512c0 23.04 18.432 41.472 41.472 41.472s41.472-18.432 41.472-41.984zM283.136 522.24c0-23.04-18.432-41.472-41.472-41.472s-41.472 18.432-41.472 41.472v0.512c0 23.04 18.432 41.472 41.472 41.472s41.472-18.944 41.472-41.984zM283.136 773.12c0-23.04-18.432-41.472-41.472-41.472s-41.472 18.432-41.472 41.472v0.512c0 23.04 18.432 41.472 41.472 41.472s41.472-18.944 41.472-41.984zM802.816 245.76c0-8.704-7.168-15.872-15.872-15.872H361.472c-8.704 0-15.872 7.168-15.872 15.872v52.224c0 8.704 7.168 15.872 15.872 15.872h425.984c8.704 0 15.872-7.168 15.872-15.872V245.76zM802.816 496.128c0-8.704-7.168-15.872-15.872-15.872H361.472c-8.704 0-15.872 7.168-15.872 15.872v52.224c0 8.704 7.168 15.872 15.872 15.872h425.984c8.704 0 15.872-7.168 15.872-15.872V496.128zM802.816 747.008c0-8.704-7.168-15.872-15.872-15.872H361.472c-8.704 0-15.872 7.168-15.872 15.872v52.224c0 8.704 7.168 15.872 15.872 15.872h425.984c8.704 0 15.872-7.168 15.872-15.872v-52.224z" p-id="2877"></path></svg>