<?xml version="1.0" standalone="no"?><!DOCTYPE svg PUBLIC "-//W3C//DTD SVG 1.1//EN" "http://www.w3.org/Graphics/SVG/1.1/DTD/svg11.dtd"><svg t="1557283637985" class="icon" style="" viewBox="0 0 1024 1024" version="1.1" xmlns="http://www.w3.org/2000/svg" p-id="8501" xmlns:xlink="http://www.w3.org/1999/xlink" width="16" height="16"><defs><style type="text/css"></style></defs><path d="M0 384l0 448 1024 0L1024 384z m960 384L64 768 64 448l896 0z" p-id="8502" fill="#000000"></path><path d="M128 448l64-1e-8 0 192.00000001L128 640zM512 447.99999999l64 1e-8 0 192L512 640zM640 448l64 0 0 128-64 0zM768 448l64-1e-8 0 128.00000002-64-1e-8zM256 448l64 0 0 128L256 576zM384 448l64 0 0 128L384 576z" p-id="8503" fill="#000000"></path><path d="M960 128l0 64L64 192 64 128 0 128l0 192 64 0L64 256l896 0 0 64 64 0L1024 128l-64 0z" p-id="8504" fill="#000000"></path></svg>