<?xml version="1.0" standalone="no"?><!DOCTYPE svg PUBLIC "-//W3C//DTD SVG 1.1//EN" "http://www.w3.org/Graphics/SVG/1.1/DTD/svg11.dtd"><svg t="1558864350982" class="icon" style="" viewBox="0 0 1024 1024" version="1.1" xmlns="http://www.w3.org/2000/svg" p-id="12107" xmlns:xlink="http://www.w3.org/1999/xlink" width="300" height="300"><defs><style type="text/css"></style></defs><path d="M532.298813 866.271676c0.173962 0.00307 0.346901 0.00614 0.520863 0.00921l-0.265036-0.265036L532.298813 866.271676z" p-id="12108"></path><path d="M946.539302 267.020496l-87.589894-87.355557c-17.151635-17.104563-44.957935-17.104563-62.108546 0L395.748834 579.695798 226.063177 410.458349c-17.149589-17.10354-44.957935-17.10354-62.107523 0l-86.924745 86.695524c-17.149589 17.10354-17.149589 44.839231 0 61.943794L363.718327 845.028862c8.995885 8.971325 20.920472 13.229303 32.702819 12.792351 11.777231 0.432859 23.694655-3.825119 32.685423-12.792351l517.432733-516.064572C963.689914 311.858704 963.689914 284.126083 946.539302 267.020496z" p-id="12109"></path></svg>