<?xml version="1.0" standalone="no"?><!DOCTYPE svg PUBLIC "-//W3C//DTD SVG 1.1//EN" "http://www.w3.org/Graphics/SVG/1.1/DTD/svg11.dtd"><svg t="1558686641743" class="icon" style="" viewBox="0 0 1024 1024" version="1.1" xmlns="http://www.w3.org/2000/svg" p-id="3019" xmlns:xlink="http://www.w3.org/1999/xlink" width="32" height="32"><defs><style type="text/css"></style></defs><path d="M464 509.2c-21.5 0-39.1-17.3-39.1-38.5s17.5-38.5 39.1-38.5c21.5 0 39.1 17.3 39.1 38.5s-17.6 38.5-39.1 38.5z m0-67.1c-16.1 0-29.3 12.9-29.3 28.7s13.1 28.7 29.3 28.7c16.1 0 29.3-12.9 29.3-28.7s-13.2-28.7-29.3-28.7z" p-id="3020"></path><path d="M444.1 470.7a19.9 19.5 0 1 0 39.8 0 19.9 19.5 0 1 0-39.8 0Z" p-id="3021"></path><path d="M464 591c-21.5 0-39.1-17.3-39.1-38.5S442.4 514 464 514c21.5 0 39.1 17.3 39.1 38.5S485.5 591 464 591z m0-67.1c-16.1 0-29.3 12.9-29.3 28.7 0 15.8 13.1 28.7 29.3 28.7 16.1 0 29.3-12.9 29.3-28.7 0-15.9-13.2-28.7-29.3-28.7z" p-id="3022"></path><path d="M444.1 552.5a19.9 19.5 0 1 0 39.8 0 19.9 19.5 0 1 0-39.8 0Z" p-id="3023"></path><path d="M485 598.5c-50.3 0-91.1 40.8-91.1 91.1s40.8 91.1 91.1 91.1 91.1-40.8 91.1-91.1-40.8-91.1-91.1-91.1z m0 137.7c-25.7 0-46.5-20.8-46.5-46.5s20.8-46.5 46.5-46.5 46.5 20.8 46.5 46.5c0 25.6-20.8 46.5-46.5 46.5zM485 241.2c-50.3 0-91.1 40.8-91.1 91.1s40.8 91.1 91.1 91.1 91.1-40.8 91.1-91.1-40.8-91.1-91.1-91.1z m0 137.7c-25.7 0-46.5-20.8-46.5-46.5s20.8-46.5 46.5-46.5 46.5 20.8 46.5 46.5-20.8 46.5-46.5 46.5z" p-id="3024"></path><path d="M458 689.7a27 27 0 1 0 54 0 27 27 0 1 0-54 0Z" p-id="3025"></path><path d="M458 332.4a27 27 0 1 0 54 0 27 27 0 1 0-54 0Z" p-id="3026"></path><path d="M825 750.4h-67V102.1c0-43.4-35.5-78.9-78.8-78.9H290.9c-43.4 0-78.8 35.5-78.8 78.9v648.3h-67c-4.3 0-7.9 3.6-7.9 7.9v93.4c0 4.3 3.5 7.9 7.9 7.9h67v64.8c0 43.4 35.5 78.9 78.8 78.9h388.3c43.4 0 78.8-35.5 78.8-78.9v-64.8h67c4.3 0 7.9-3.6 7.9-7.9v-93.4c0-4.4-3.6-7.9-7.9-7.9z m-134.8 64.9c0 2.3-1.9 4.1-4.1 4.1h-24.3v32.8c0 4.3-3.5 7.9-7.9 7.9H316.1c-4.3 0-7.9-3.6-7.9-7.9v-32.8h-24.3c-2.3 0-4.1-1.9-4.1-4.1v-26.2c0-2.3 1.9-4.1 4.1-4.1h24.3V232.4h-22.1c-3.2 0-5.7-2.6-5.7-5.7V172c0-3.2 2.6-5.7 5.7-5.7h397.6c3.2 0 5.7 2.6 5.7 5.7v54.7c0 3.2-2.6 5.7-5.7 5.7h-22.1V785h24.3c2.3 0 4.1 1.9 4.1 4.1v26.2z" p-id="3027"></path><path d="M212.1 516.6H39.3c-2.7 0-4.9-2.2-4.9-4.9s2.2-4.9 4.9-4.9H212c2.7 0 4.9 2.2 4.9 4.9 0.1 2.7-2.1 4.9-4.8 4.9zM655.7 516.6H314.4c-2.7 0-4.9-2.2-4.9-4.9s2.2-4.9 4.9-4.9h341.3c2.7 0 4.9 2.2 4.9 4.9s-2.2 4.9-4.9 4.9zM981.5 516.6h-222c-2.7 0-4.9-2.2-4.9-4.9s2.2-4.9 4.9-4.9h222c2.7 0 4.9 2.2 4.9 4.9s-2.2 4.9-4.9 4.9z" p-id="3028"></path></svg>