<?xml version="1.0" standalone="no"?><!DOCTYPE svg PUBLIC "-//W3C//DTD SVG 1.1//EN" "http://www.w3.org/Graphics/SVG/1.1/DTD/svg11.dtd"><svg t="1547449530508" class="icon" style="" viewBox="0 0 1024 1024" version="1.1" xmlns="http://www.w3.org/2000/svg" p-id="3792" xmlns:xlink="http://www.w3.org/1999/xlink" width="200" height="200"><defs><style type="text/css"></style></defs><path d="M987.428571 0H36.571429a36.571429 36.571429 0 0 0-36.571429 36.571429v950.857142a36.571429 36.571429 0 0 0 36.571429 36.571429h345.965714a36.571429 36.571429 0 0 0 36.571428-36.571429V419.108571h568.32a36.571429 36.571429 0 0 0 36.571429-36.571428V36.571429a36.571429 36.571429 0 0 0-36.571429-36.571429zM950.857143 345.965714H382.537143a36.571429 36.571429 0 0 0-36.571429 36.571429V950.857143H73.142857v-185.782857h136.045714a36.571429 36.571429 0 0 0 0-73.142857H73.142857V591.725714h92.891429a36.571429 36.571429 0 0 0 0-73.142857H73.142857V419.108571h179.2a36.571429 36.571429 0 0 0 0-73.142857H73.142857V73.142857h317.44a34.377143 34.377143 0 0 0 0 6.582857v173.348572a36.571429 36.571429 0 0 0 73.142857 0V79.725714A34.377143 34.377143 0 0 0 460.8 73.142857h100.937143v49.737143a36.571429 36.571429 0 0 0 73.142857 0V73.142857H731.428571v136.045714a36.571429 36.571429 0 0 0 73.142858 0V73.142857h146.285714z" p-id="3793"></path></svg>