<?xml version="1.0" standalone="no"?><!DOCTYPE svg PUBLIC "-//W3C//DTD SVG 1.1//EN" "http://www.w3.org/Graphics/SVG/1.1/DTD/svg11.dtd">
<svg class="icon" width="300px" height="289.81px" viewBox="0 0 1060 1024" version="1.1" 
  xmlns="http://www.w3.org/2000/svg">
  <path d="M103.277714 989.293714A73.142857 73.142857 0 0 1 0 922.697143v-278.820572l290.742857-133.412571v370.541714a36.571429 36.571429 0 0 1-21.504 33.316572l-165.961143 75.008zM239.177143 8.082286a36.571429 36.571429 0 0 1 51.565714 33.353143v401.261714L0 573.44V162.998857a73.142857 73.142857 0 0 1 43.154286-66.706286L239.177143 8.045714z m140.178286 906.24a36.571429 36.571429 0 0 1-21.540572-33.353143V510.427429l290.706286 131.401142v337.481143a36.571429 36.571429 0 0 1-51.638857 33.316572L379.355429 914.285714z m-21.540572-471.625143V41.435429a36.571429 36.571429 0 0 1 51.565714-33.353143l217.6 97.901714a36.571429 36.571429 0 0 1 21.540572 33.353143v434.139428l-290.706286-130.779428z m335.433143 133.412571V141.787429a36.571429 36.571429 0 0 1 23.954286-34.304l235.52-86.491429a73.142857 73.142857 0 0 1 98.377143 68.681143v763.830857a73.142857 73.142857 0 0 1-47.945143 68.681143l-260.681143 95.707428a36.571429 36.571429 0 0 1-49.188572-34.304V641.828571l214.710858-65.718857v-65.682285l-214.747429 65.682285z m217.673143-131.437714s68.608-95.085714 68.608-131.291429c0-36.278857-32.036571-65.718857-71.533714-65.718857-39.460571 0-71.570286 29.44-71.570286 65.682286 0 36.278857 74.496 131.328 74.496 131.328z" />
</svg>