<?xml version="1.0" standalone="no"?><!DOCTYPE svg PUBLIC "-//W3C//DTD SVG 1.1//EN" "http://www.w3.org/Graphics/SVG/1.1/DTD/svg11.dtd"><svg t="1557456015464" class="icon" style="" viewBox="0 0 1024 1024" version="1.1" xmlns="http://www.w3.org/2000/svg" p-id="2756" xmlns:xlink="http://www.w3.org/1999/xlink" width="330" height="330"><defs><style type="text/css">html, * { user-select: text !important; }
</style></defs><path d="M689.49333333 160.02417778H162.47466667a54.61333333 54.61333333 0 0 0-54.61333334 54.61333334v630.23786665a54.61333333 54.61333333 0 0 0 54.61333334 54.61333334h410.69226666a210.80746667 210.80746667 0 0 1 169.30133334-288.3584V212.99911111a54.61333333 54.61333333 0 0 0-52.97493334-52.97493333z m-131.072 422.16106666H293.54666667a26.2144 26.2144 0 0 1 0-54.61333333h264.87466666a26.2144 26.2144 0 1 1 0 54.61333333z m0-158.37866667H293.54666667a26.2144 26.2144 0 0 1 0-54.61333333h264.87466666a26.2144 26.2144 0 1 1 0 54.61333333z" p-id="2757"></path><path d="M926.5152 792.44657777h-28.94506667a130.52586667 130.52586667 0 0 0-19.11466666-46.42133332l20.20693333-20.20693333a26.2144 26.2144 0 0 0 0-37.68320001 26.76053333 26.76053333 0 0 0-37.6832 0l-20.20693333 20.20693333a131.072 131.072 0 0 0-46.42133334-19.11466667v-28.94506666a26.2144 26.2144 0 0 0-26.2144-26.76053334 26.76053333 26.76053333 0 0 0-26.2144 26.76053334v28.94506666a130.52586667 130.52586667 0 0 0-46.42133333 19.11466667l-19.6608-19.6608a26.2144 26.2144 0 0 0-37.6832 0 26.76053333 26.76053333 0 0 0 0 37.68320001l20.20693333 20.20693332a131.072 131.072 0 0 0-19.11466666 46.42133334h-28.94506667a26.2144 26.2144 0 0 0-26.76053333 26.21440001 26.76053333 26.76053333 0 0 0 26.76053333 26.21439999h28.94506667a130.52586667 130.52586667 0 0 0 19.11466666 46.42133333l-20.20693333 20.20693334a26.2144 26.2144 0 0 0 0 37.68319999 26.76053333 26.76053333 0 0 0 37.6832 0l20.20693333-20.20693333a131.072 131.072 0 0 0 46.42133334 19.11466667v28.94506666a26.2144 26.2144 0 0 0 26.2144 26.76053334 26.76053333 26.76053333 0 0 0 26.2144-26.76053334v-28.94506666a130.52586667 130.52586667 0 0 0 46.42133333-19.11466667l20.20693333 20.20693333a26.2144 26.2144 0 0 0 37.6832 0 26.76053333 26.76053333 0 0 0 0-37.68319999l-20.20693333-21.84533334a131.072 131.072 0 0 0 19.11466667-46.42133332h28.94506666a26.2144 26.2144 0 0 0 26.76053334-26.21440001 26.76053333 26.76053333 0 0 0-27.30666667-25.12213334z m-157.83253333 105.94986668a79.18933333 79.18933333 0 1 1 79.18933333-79.18933333 79.18933333 79.18933333 0 0 1-79.18933333 79.18933333zM148.82133333 214.63751112A25.66826667 25.66826667 0 0 1 129.70666667 170.40071112l141.99466666-141.99466667a25.66826667 25.66826667 0 0 1 36.59093334 36.59093332l-141.99466667 141.99466667a25.66826667 25.66826667 0 0 1-17.47626667 7.64586668zM708.06186667 214.63751112a25.66826667 25.66826667 0 0 1-18.56853334-44.2368l141.99466667-141.99466667a25.66826667 25.66826667 0 1 1 36.59093333 36.59093332l-141.99466666 141.99466667a25.66826667 25.66826667 0 0 1-18.0224 7.64586668z" p-id="2758"></path><path d="M850.60266667 71.00444445H293.54666667a25.66826667 25.66826667 0 0 1 0-51.88266668h557.056a25.66826667 25.66826667 0 0 1 0 51.88266667z" p-id="2759"></path><path d="M876.27093333 636.25244445V50.79751111a25.66826667 25.66826667 0 0 0-51.88266666 0V617.13777778a208.62293333 208.62293333 0 0 1 51.88266666 19.11466666z" p-id="2760"></path></svg>