<?xml version="1.0" standalone="no"?><!DOCTYPE svg PUBLIC "-//W3C//DTD SVG 1.1//EN" "http://www.w3.org/Graphics/SVG/1.1/DTD/svg11.dtd"><svg class="icon" width="300px" height="300.00px" viewBox="0 0 1024 1024" version="1.1" xmlns="http://www.w3.org/2000/svg"><path  d="M971.3 710.5c5.5 14.2 2.4 30.8-7.9 41.8-19.7 21.3-19.7 55.2 0 77.3 10.3 11 13.4 27.6 7.9 41.8-7.1 18.1-17.3 35.5-29.2 50.5-9.5 11.8-25.2 17.3-39.4 14.2-14.2-3.1-28.4-0.8-41 6.3-12.6 7.1-21.3 18.9-26 32.4-4.8 15-17.3 25.2-32.4 27.6-9.5 0.8-19.7 1.6-29.2 1.6s-19.7-0.8-29.2-2.4c-15-2.4-27.6-12.6-32.4-27.6-8.7-28.4-37.9-44.9-67-38.6-15 3.2-30-2.4-39.4-14.2-11.8-15.8-22.1-32.4-29.2-50.5-5.5-14.2-2.4-30.8 7.9-41.8 19.7-21.3 19.7-55.2 0-77.3-10.3-11-13.4-27.6-7.9-41.8 7.1-18.1 17.3-35.5 29.2-50.5 9.5-11.8 25.2-17.3 40.2-14.2 14.2 3.2 28.4 0.8 41-6.3 12.6-7.1 21.3-18.9 26-32.4 4.8-15 17.3-25.2 32.4-27.6 18.9-2.4 38.6-2.4 58.4 0 15 2.4 27.6 12.6 32.4 27.6 4 13.4 13.4 25.2 26 32.4 12.6 7.1 26.8 9.5 41 6.3 15-3.2 30.8 2.4 39.4 14.2 11.1 16.5 21.3 33.1 28.4 51.2z m-29.2 11.9c-6.3-15-15-30-25.2-42.6-1.6-2.4-4.8-3.2-7.9-2.4-21.3 4.8-44.2 1.6-63.1-9.5-19.7-11-33.9-29.2-40.2-50.5-0.8-3.2-3.2-5.5-6.3-5.5-16.6-2.4-33.1-2.4-49.7 0-3.2 0.8-5.5 2.4-6.3 5.5-6.3 21.3-20.6 39.5-40.3 50.5-18.9 11-41.8 14.2-63.9 9.5-3.2-0.8-6.3 0.8-7.9 2.4-10.3 13.4-18.9 27.6-25.2 42.6-0.8 3.2-0.8 6.3 1.6 8.7 30.8 33.9 30.8 86 0 119.9-2.4 2.4-2.4 5.5-1.6 7.9 6.3 15.8 15 30 24.4 42.6 1.6 2.4 5.5 3.2 7.9 3.2 44.9-10.3 89.9 16.6 104.1 60 0.8 3.2 3.2 4.8 6.3 5.5 7.9 0.8 16.6 1.6 24.4 1.6 8.7 0 16.6-0.8 25.2-1.6 3.2-0.8 5.5-2.4 6.3-5.5 6.3-21.3 20.5-39.4 40.2-50.5 18.9-11 41.8-14.2 63.9-9.5 3.2 0.8 6.3-0.8 7.9-2.4 10.3-13.4 18.9-27.6 25.2-42.6 0.8-2.4 0.8-6.3-1.6-8.7-30.8-33.9-30.8-86 0-119.9 2.6-2.4 2.6-5.6 1.8-8.7zM770.9 869.9c-43.4 0-78.9-35.5-78.9-78.9s35.5-78.9 78.9-78.9 78.9 35.5 78.9 78.9-34.7 78.9-78.9 78.9z m0-31.6c26 0 47.3-21.3 47.3-47.3s-21.3-47.3-47.3-47.3-47.3 21.3-47.3 47.3 21.3 47.3 47.3 47.3z"  /><path  d="M1023.2 157.4c0.1-1.6 0.2-3.1 0.2-4.7 0-26.1-16.6-49.7-49.3-70.2-26.5-16.6-63.9-31.4-111-43.8C768.9 13.8 644.3 0.1 512 0.1S255.1 13.8 161 38.7C113.9 51.2 76.6 65.9 50 82.5 17.3 103.1 0.7 126.7 0.7 152.7v2.3H0.6v236.6c0 1.5-0.1 2.9 0 4.4v477.5h0.2c0.9 25.1 17.4 48 49.3 68 26.5 16.6 63.9 31.4 111 43.8 89.7 23.7 207.1 37.3 332.5 38.5v-46.7h-0.1c-121.3-1.2-234.5-14.2-320.4-37-41.9-11.2-75.7-24.3-98-38.3C57.7 891 47.7 880 47.7 871.5h-0.1V700.4c0.8 0.5 1.6 1.1 2.5 1.6 26.5 16.6 63.9 31.4 111 43.8 89.5 23.7 207 37.3 332.5 38.5v-47c-121.3-1.2-234.6-14.2-320.4-36.9-41.9-11.2-75.9-24.3-98-38.3-17.4-10.9-27.4-22-27.4-30.4h-0.1c0-0.2 0.1-1.1 0.1-1.8v-0.4h-0.1v-167c20.9 13.4 42.6 22.3 64.2 30.1 21.7 7.7 43.7 13.9 65.6 19.1 22.1 5.3 44.1 9.6 66.2 13.4 44.3 7.5 88.7 12.6 133.2 15.9 44.5 3.3 89 4.9 133.5 4.9s89-1.4 133.5-4.7c44.5-3.3 88.9-8.2 133.2-15.6 22.2-3.8 44.3-8.1 66.2-13.3 22.1-5.2 44-11.3 65.8-18.8 10.9-3.8 21.7-8 32.5-12.8 10.8-4.7 21.5-10.2 32.1-16.7 0.9-0.6 1.9-1.2 2.8-1.8v111.1h47V157.4h-0.3z m-46.6 238.9h-0.2c-0.2 1.2-0.6 2.5-1.3 4.1-1.1 2.5-3.1 5.2-5.5 8-4.9 5.8-12.4 11.3-20.4 16.3-4.1 2.5-8.3 4.8-12.8 7.2-4.5 2.2-8.9 4.5-13.6 6.5-9.3 4.1-19 7.9-28.9 11.3-19.7 6.9-40.3 12.6-61.1 17.5s-41.9 9-63.2 12.6c-42.5 7-85.6 11.9-128.8 15-43.2 3.2-86.7 4.6-130.1 4.6-43.4-0.1-86.9-1.6-130.1-4.8-43.2-3.3-86.3-8.2-128.8-15.4-21.3-3.6-42.3-7.9-63.1-12.8s-41.2-10.7-60.9-17.7c-9.9-3.5-19.5-7.3-28.8-11.5-4.6-2.2-9.2-4.3-13.5-6.7-2.2-1.1-4.3-2.3-6.5-3.5-2-1.3-4.1-2.5-6.1-3.8-8-5-15-10.8-19.6-16.4-2.3-2.7-3.9-5.4-4.8-7.6-0.8-2.2-0.9-3.9-0.9-5.6V221.4c0.8 0.5 1.6 1.1 2.5 1.6 26.5 16.6 63.9 31.4 111 43.8 94.1 24.9 218.6 38.6 351 38.6s256.9-13.7 351-38.6c47.1-12.4 84.4-27.1 111-43.8 0.8-0.5 1.7-1.1 2.5-1.6v174.9z m-27.4-213c-22.3 14-56.2 27.1-98.2 38.3-90.3 24-210.6 37.1-339 37.1s-248.7-13.3-339-37.1c-42-11.2-75.9-24.3-98.2-38.3-17.4-10.9-27.4-22-27.4-30.4 0.1-8.5 10-19.5 27.4-30.5 22.3-14 56.2-27.1 98.2-38.3 90.3-23.9 210.6-37 339-37s248.7 13.2 339 37.1c42 11.2 75.9 24.3 98.2 38.3 17.4 10.9 27.4 22 27.4 30.4 0 8.5-10 19.5-27.4 30.4z"  /></svg>