<?xml version="1.0" standalone="no"?><!DOCTYPE svg PUBLIC "-//W3C//DTD SVG 1.1//EN" "http://www.w3.org/Graphics/SVG/1.1/DTD/svg11.dtd"><svg class="icon" width="300px" height="209.55px" viewBox="0 0 1466 1024" version="1.1" xmlns="http://www.w3.org/2000/svg"><path  d="M505.46033205 465.85148368c34.55421487 83.45975871 110.70531843 138.41344763 194.21133433 138.41344757s159.7033767-54.93056172 194.28071879-138.40188258c35.65282595-7.06580396 66.58740404-40.70643657 76.3245703-85.09033204 5.78216394-26.04286919 3.60807173-52.46735834-6.04814507-74.40488859-10.76639008-24.40073362-30.22915477-41.28465323-53.47345504-46.25731437a30.71485698 30.71485698 0 0 0-7.57463621-0.39318781c-9.14738453 18.29476911-25.44152247 34.47326257-46.99742992 47.77224327a25.62655137 25.62655137 0 0 0 29.76658255 4.90327395c3.90874224-1.94280612 7.50524898-3.46929726 13.87719457-2.60197504 9.49431513 1.27207502 14.79077686 11.43712123 17.17302514 16.87235743 5.30802672 12.05003009 6.38351066 27.83533863 2.96047069 43.31997382-6.30255841 28.62171421-25.56872914 46.36139387-41.63158384 46.36139382h-0.11564444a26.01973916 26.01973916 0 0 0-27.06052811 17.34649186c-23.9844186 71.69883685-84.85904316 119.80644295-151.49270439 119.80644297-67.61662794 0-127.04571359-47.03212495-151.42331721-119.80644297-3.46929726-10.48884678-14.9642407-17.3464918-26.19320304-17.34649186a23.90346639 23.90346639 0 0 0-2.69448949 0.15033669c-14.29350958 0-33.62906759-17.77437185-39.96632101-46.50016552-3.46929726-15.44994291-2.31286668-31.22368643 2.94890559-43.2852816 2.39381611-5.44679838 7.65558566-16.02815965 20.28383246-17.19615795 3.24957616-0.30067335 6.9385973 0.98296666 10.82420952 2.91421059a25.86940252 25.86940252 0 0 0 21.18584969 0.84419779 25.44152247 25.44152247 0 0 0 8.54604067-5.78216398c-21.63685968-13.28741294-37.88474043-29.48903642-47.0321249-47.78380832a26.59795588 26.59795588 0 0 0-7.89843678 0.47414004c-23.20960804 4.9957912-42.34857217 21.78719636-53.10339724 46.25731444-9.667779 21.97222525-11.80717902 48.36202222-6.04814235 74.39332355 9.80655066 44.40702269 40.7295666 78.03609029 76.32456757 85.10189425z m0 0"  /><path  d="M521.83542226 224.23796663c0 48.16542829 79.64353088 87.19503706 177.81311414 87.19503701s177.85937413-39.02960875 177.85937413-87.19503701c0-1.91967891-0.90201719-3.70058615-1.1564333-5.59713511H522.99185561c-0.25441615 1.88498669-1.15643334 3.66589114-1.15643335 5.59713511z m0 0M511.4853471 166.60135316l5.37741398 18.15599465h365.60624562l5.38897897-18.16755965 26.26259035-88.43241983a30.21758978 30.21758978 0 0 0-2.79856896-23.7300025 30.99240033 30.99240033 0 0 0-19.23147856-14.47853844L746.87725525 3.34772697a193.12428822 193.12428822 0 0 0-94.37648547 0l-145.1323238 36.60110042a30.89988592 30.89988592 0 0 0-19.23147856 14.47853844 30.20602755 30.20602755 0 0 0-2.82169612 23.70687246z m0 0"  /><path  d="M1059.49574808 924.74716867v99.03691108H339.89384197V850.65451562c0-102.8300089 88.79091541-186.1856909 198.33979765-186.18569093h12.43165291l92.42211436 209.31434675 25.90409474-123.09071133c-0.54352446-0.61290885-1.15643334-1.15643334-1.68839005-1.76934225l-20.93143629-27.75438923a32.38011974 32.38011974 0 0 1-2.61353728-35.4099748c6.24473615-11.32147676 18.69951911-18.50292522 32.28760536-18.50292523h47.26341108c13.58808625 0 26.04286919 7.13519118 32.28760539 18.50292523a32.38011974 32.38011974 0 0 1-2.61354008 35.4099748l-20.93143358 27.75438923c-0.48570224 0.64760111-1.15643334 1.15643334-1.65369776 1.72308498l25.90409472 123.1369686 92.42211433-209.31434675h12.43165291a209.83474117 209.83474117 0 0 1 64.76023964 10.13035401 181.5599575 181.5599575 0 0 0-12.7207613 66.93433181c0 87.35693877 61.95010846 160.95232453 146.35814159 183.25991535z m0 0"  /><path  d="M1037.58134789 812.85072464a14.15473795 14.15473795 0 1 0 14.15473793-14.15473792 14.15473795 14.15473795 0 0 0-14.15473793 14.15473792z m0 0"  /><path  d="M1144.80580125 539.36592003a174.76013187 174.76013187 0 1 0 174.77169688 174.7485697A174.74856967 174.74856967 0 0 0 1144.80580125 539.36592003z m-11.78405181 233.33345752c-4.83388951 4.83388951-65.65069181 67.70914239-65.65069179 67.7091424s-6.05970727 6.08283733-12.77858347 6.08283732a15.29960624 15.29960624 0 0 1-10.40789457-3.79310066l-22.31915576-20.63076018s-6.03658011-5.25020449-6.29099343-10.93985682 6.09440234-11.67997233 6.0943995-11.67996954 59.35969844-61.29094236 64.34392462-66.22891128c3.98969447-4.00125671 8.09503067-4.7876323 10.7779551-0.43944502a112.41683845 112.41683845 0 0 0 13.0561268 15.99346742c7.37804229 7.37804229 18.61856963 13.72685795 21.9722224 15.83156572 3.4114778 1.6883928 2.90264558 6.62635893 1.1564334 8.09503064z m58.2726523-9.54057233c-53.64691889 0-97.14035939-42.44108659-97.14035936-94.82749266s43.49344048-94.82749545 97.14035936-94.82749551c13.78468012 0 17.77437185 1.15643334 28.08975477 4.38288231s7.64402062 6.81139063 2.31286386 12.20036395-31.22368643 32.38011974-31.22368641 32.38012262a11.35617179 11.35617179 0 0 0 0.28910833 16.0165946l32.58827871 31.42028035a11.35617179 11.35617179 0 0 0 16.01659461-0.28910833s26.87549918-28.00880254 30.79580641-31.92911263 9.84124289-8.73106673 13.12551405-0.23128606 5.26176948 16.46760459 5.26176957 30.83050145c0 52.3517167-43.49344048 94.82749545-97.1403594 94.82749269z m0 0"  /></svg>