<?xml version="1.0" standalone="no"?><!DOCTYPE svg PUBLIC "-//W3C//DTD SVG 1.1//EN" "http://www.w3.org/Graphics/SVG/1.1/DTD/svg11.dtd"><svg class="icon" width="300px" height="209.55px" viewBox="0 0 1466 1024" version="1.1" xmlns="http://www.w3.org/2000/svg"><path  d="M294.85124106 448.27624476c47.7138705 115.2446419 152.86642301 191.12693894 268.17493873 191.12693886s220.52494213-75.85036206 268.27074761-191.11096948c49.23087753-9.75675056 91.9466058-56.20910938 105.39208249-117.49620412 7.98424801-35.96105693 4.98217274-72.44907027-8.35152562-102.74130759-14.86667094-33.69352909-41.74165094-57.00753455-73.83832967-63.87398805a42.41232839 42.41232839 0 0 0-10.4593669-0.54292977c-12.63108199 25.26216403-35.13069282 47.60208825-64.89596981 65.96586372a35.38618829 35.38618829 0 0 0 41.10291234 6.77064084c5.39735086-2.68270599 10.36355417-4.79054727 19.16219679-3.59291337 13.11013791 1.75653312 20.4237085 15.7928439 23.71321416 23.29803991 7.32953999 16.63917347 8.81461213 38.4361719 4.08793879 59.81798832-8.70282994 39.52203141-35.30634498 64.01770527-57.48659051 64.01770519h-0.15968655a35.92911804 35.92911804 0 0 0-37.36628191 23.95274409c-33.11866433 99.00468089-117.176831 165.4336273-209.18731061 165.43362732-93.36780018 0-175.42990773-64.94387812-209.09149796-165.43362732-4.79054727-14.48342782-20.66323444-23.95274403-36.16864405-23.95274409a33.0068822 33.0068822 0 0 0-3.7206611 0.20759104c-19.73706154 0-46.43638937-24.54357825-55.18712759-64.20932683-4.79054727-21.33391188-3.19370073-43.11494089 4.07196922-59.77008386 3.305479-7.52116155 10.57114521-22.13233716 28.00874392-23.74515689 4.48714741-0.41518204 9.58109839 1.35732049 14.94651037 4.02406094a35.72152707 35.72152707 0 0 0 29.25428611 1.16570275 35.13069282 35.13069282 0 0 0 11.80072186-7.98424804c-29.87705911-18.34780223-52.31279616-40.71966532-64.94387806-65.98183323a36.7275433 36.7275433 0 0 0-10.90648395 0.65471194c-32.04877427 6.89839243-58.47663724 30.08465015-73.32733876 63.87398814-13.34966391 30.3401456-16.30383479 66.78025456-8.35152186 102.72533811 13.54128548 61.31902976 56.24104827 107.75541915 105.39207871 117.5121697z m0 0"  /><path  d="M317.46263409 114.646437c0 66.50878963 109.97503874 120.40246674 245.53160687 120.40246668s245.59548457-53.89367707 245.59548456-120.40246668c0-2.650771-1.24554215-5.10992042-1.59685032-7.72875266H319.05948446c-0.35130822 2.60286657-1.59685037 5.06201213-1.59685037 7.72875266z m0 0M303.17082778 35.05944821l7.42535273 25.07053862h504.84402913l7.44132216-25.08650804 36.26445687-122.11109538a41.72568154 41.72568154 0 0 0-3.86437827-32.76735619 42.79557157 42.79557157 0 0 0-26.55561068-19.99255693L628.20958397-190.36782334a266.6739011 266.6739011 0 0 0-130.31890387 0l-200.40463746 50.54029363a42.6678239 42.6678239 0 0 0-26.55561067 19.99255693 41.70971595 41.70971595 0 0 0-3.8963132 32.73541729z m0 0"  /><path  d="M1059.8859609 1081.9381401v136.75420981H66.23027261V979.62798009c0-141.99187412 122.60612071-257.09280266 273.87568944-257.09280272h17.16613382l127.62022847 289.02979484 35.7694315-169.96867914c-0.75052077-0.84632956-1.59685037-1.59685037-2.33139792-2.44318l-28.9029817-38.32439367a44.7117912 44.7117912 0 0 1-3.60887897-48.89553876c8.6229866-15.63315729 25.82105936-25.54959449 44.58404355-25.5495945h65.26324746c18.76298421 0 35.96105693 9.85256325 44.58404361 25.5495945a44.7117912 44.7117912 0 0 1-3.60888285 48.89553876l-28.90297796 38.32439367c-0.67067748 0.89423405-1.59685037 1.59685037-2.28349339 2.37930608l35.76943148 170.03255306 127.62022843-289.02979484h17.16613382a289.74837669 289.74837669 0 0 1 89.42358262 13.98840636 250.70540115 250.70540115 0 0 0-17.56534652 92.42565783c0 120.62602723 85.54323876 222.24954028 202.0972967 253.05277234z m0 0"  /><path  d="M1029.62566253 927.42696224a19.54544001 19.54544001 0 1 0 19.54543995-19.54543997 19.54544001 19.54544001 0 0 0-19.54543995 19.54543997z m0 0"  /><path  d="M1177.68556494 549.78797954a241.31592433 241.31592433 0 1 0 241.33189377 241.29995882A241.29995876 241.29995876 0 0 0 1177.68556494 549.78797954z m-16.2718998 322.19636351c-6.67483197 6.67483197-90.65315532 93.49554791-90.65315527 93.49554793s-8.36749118 8.39943011-17.64518973 8.3994301a21.12632087 21.12632087 0 0 1-14.37164571-5.23766824l-30.81920141-28.48779587s-8.33555625-7.24969667-8.68686055-15.1062009 8.41539954-16.1281826 8.41539563-16.12817877 81.96629485-84.63303529 88.84871784-91.45158434c5.50913299-5.52509861 11.17794882-6.61095813 14.88264038-0.60680363a155.22975973 155.22975973 0 0 0 18.02843288 22.08443272c10.18790199 10.18790199 25.70928101 18.95460583 30.34014166 21.86087224 4.71070782 2.33140171 4.00809151 9.14994692 1.59685046 11.17794876z m80.46525716-13.17401174c-74.07785563 0-134.13537381-58.60438493-134.13537377-130.94167301s60.05751814-130.94167687 134.13537377-130.94167695c19.03444903 0 24.54357825 1.59685037 38.7874801 6.05206282s10.55517572 9.40544625 3.19369683 16.84676061-43.11494089 44.7117912-43.11494083 44.71179516a15.6810656 15.6810656 0 0 0 0.39921259 22.11636767l44.99922557 43.38640578a15.6810656 15.6810656 0 0 0 22.1163677-0.39921259s37.11078641-38.67569795 42.52410666-44.08902217 13.58918994-12.05621338 18.12424563-0.31936923 7.26566609 22.73914067 7.26566622 42.57201501c0 72.28938757-60.05751814 130.94167687-134.13537382 130.94167304z m0 0"  /></svg>