<?xml version="1.0" standalone="no"?><!DOCTYPE svg PUBLIC "-//W3C//DTD SVG 1.1//EN" "http://www.w3.org/Graphics/SVG/1.1/DTD/svg11.dtd"><svg t="1557417519242" class="icon" style="" viewBox="0 0 1024 1024" version="1.1" xmlns="http://www.w3.org/2000/svg" p-id="1405" xmlns:xlink="http://www.w3.org/1999/xlink" width="200" height="200"><defs><style type="text/css"></style></defs><path d="M858.599949 266.204921c-19.11229-26.041096-45.691645-56.484456-74.902944-85.641519-29.207206-29.209252-59.653635-55.841819-85.641519-74.90192-44.351114-32.485879-65.828264-36.243459-78.123288-36.243459H193.820334c-37.909401 0-68.730361 30.818913-68.730361 68.72729v742.263338c0 37.907355 30.818913 68.727291 68.730361 68.727291h632.293737c37.85312 0 68.730361-30.818913 68.73036-68.727291v-536.079418c0.001023-12.349259-3.758604-33.82641-36.244482-78.124312z m-113.830535-46.76714c26.418696 26.417673 47.092551 50.151213 62.336744 69.910233H674.80597V157.100014c19.759019 15.301498 43.547819 35.976376 69.909209 62.336744h0.054235v0.001023z m95.091752 660.97087c0 7.463995-6.281053 13.745049-13.745049 13.745049H193.821357c-7.467065 0-13.748119-6.281053-13.748119-13.745049V138.146337c0-7.40976 6.281053-13.745049 13.748119-13.745049H619.933221V316.839135c0 15.139815 12.295024 27.491121 27.491121 27.491121H839.862189v536.078395h-0.001023z m-89.754187-92.034113L595.040275 633.317043c26.056446-32.633235 41.641399-73.988108 41.641399-118.992091 0-105.402585-85.451184-190.855816-190.865026-190.855816-105.407702 0-190.860932 85.453231-190.860932 190.855816 0 105.405655 85.455277 190.854792 190.860932 190.854792 41.508369 0 75.068719-8.40953 106.390076-30.909987l156.005076 155.991774c5.847172 5.848195 15.325034 5.848195 21.168112 0l20.726044-20.718881c5.845125-5.849218 5.845125-15.321964 0.001023-21.168112zM445.817672 639.138632c-68.933999 0-124.815727-55.881728-124.815727-124.81368 0-68.932975 55.879682-124.811634 124.815727-124.811634 68.933999 0 124.815727 55.879682 124.815727 124.811634S514.75167 639.138632 445.817672 639.138632z" fill="" p-id="1406"></path></svg>