<?xml version="1.0" standalone="no"?><!DOCTYPE svg PUBLIC "-//W3C//DTD SVG 1.1//EN" "http://www.w3.org/Graphics/SVG/1.1/DTD/svg11.dtd"><svg class="icon" width="330px" height="330.00px" viewBox="0 0 1024 1024" version="1.1" xmlns="http://www.w3.org/2000/svg"><path d="M39.385 0A39.385 39.385 0 0 0 0 39.385v945.23a39.385 39.385 0 0 0 78.77 0V39.385A39.385 39.385 0 0 0 39.384 0zM984.615 945.23H39.385a39.385 39.385 0 0 0 0 78.77h945.23a39.385 39.385 0 0 0 0-78.77zM39.385 0A39.385 39.385 0 0 0 0 39.385v945.23a39.385 39.385 0 0 0 78.77 0V39.385A39.385 39.385 0 0 0 39.384 0zM419.76 328.546a39.542 39.542 0 0 0-27.884 11.5l-222.76 222.76a39.385 39.385 0 0 0 55.69 55.848l222.76-222.76a39.385 39.385 0 0 0-27.806-67.348zM420.076 328.546a39.385 39.385 0 0 0-27.884 67.19l222.76 222.76a39.385 39.385 0 1 0 55.847-55.532l-222.76-222.76a39.385 39.385 0 0 0-27.963-11.658zM920.34 272.857a39.542 39.542 0 0 0-27.885 11.5L613.927 562.885a39.385 39.385 0 0 0 55.848 55.769l278.528-278.528a39.385 39.385 0 0 0-27.963-67.27z" /></svg>