<?xml version="1.0" standalone="no"?><!DOCTYPE svg PUBLIC "-//W3C//DTD SVG 1.1//EN" "http://www.w3.org/Graphics/SVG/1.1/DTD/svg11.dtd"><svg t="1557979101090" class="icon" style="" viewBox="0 0 1024 1024" version="1.1" xmlns="http://www.w3.org/2000/svg" p-id="6846" xmlns:xlink="http://www.w3.org/1999/xlink" width="200" height="200"><defs><style type="text/css"></style></defs><path d="M884.8 395.2C836.4 346.7 772.1 320 704 320H237.3l105.4-105.4c12.5-12.5 12.5-32.8 0-45.3s-32.8-12.5-45.3 0l-160 160c-12.5 12.5-12.5 32.8 0 45.3l160 160c6.2 6.2 14.4 9.4 22.6 9.4s16.4-3.1 22.6-9.4c12.5-12.5 12.5-32.8 0-45.3L237.3 384H704c105.9 0 192 86.1 192 192s-86.1 192-192 192H224c-17.7 0-32 14.3-32 32s14.3 32 32 32h480c68.1 0 132.4-26.7 180.8-75.2S960 644.1 960 576s-26.7-132.4-75.2-180.8z" p-id="6847"></path></svg>