<?xml version="1.0" standalone="no"?><!DOCTYPE svg PUBLIC "-//W3C//DTD SVG 1.1//EN" "http://www.w3.org/Graphics/SVG/1.1/DTD/svg11.dtd"><svg t="1556606578517" class="icon" style="" viewBox="0 0 1024 1024" version="1.1" xmlns="http://www.w3.org/2000/svg" p-id="1498" xmlns:xlink="http://www.w3.org/1999/xlink" width="300" height="300"><defs><style type="text/css">html, * { user-select: text !important; }
</style></defs><path d="M657.5 256c0-17.7-14.3-32-31.9-32H242.5c-17.6 0-31.9 14.3-31.9 32s14.3 32 31.9 32h383.1c17.7 0 31.9-14.3 31.9-32zM657.5 448c0-17.7-14.3-32-31.9-32H242.5c-17.6 0-31.9 14.3-31.9 32s14.3 32 31.9 32h383.1c17.7 0 31.9-14.3 31.9-32zM242.5 608c-17.6 0-31.9 14.3-31.9 32s14.3 32 31.9 32h191.6c17.6 0 31.9-14.3 31.9-32s-14.3-32-31.9-32H242.5z" p-id="1499"></path><path d="M608.1 832H176.7c-17.6 0-31.9-14.3-31.9-32V160c0-17.7 14.3-32 31.9-32H690c17.6 0 31.9 14.3 31.9 32v320c0 17.7 14.3 32 31.9 32 17.6 0 31.9-14.3 31.9-32V128c0-35.3-28.6-64-63.8-64h-577C109.6 64 81 92.7 81 128v704c0 35.3 28.6 64 63.8 64h463.3c17.6 0 31.9-14.3 31.9-32s-14.3-32-31.9-32z" p-id="1500"></path><path d="M831 640H685.8l23.1-23.1c12.5-12.5 12.5-32.8 0-45.3-6.2-6.2-14.4-9.4-22.6-9.4s-16.4 3.1-22.6 9.4L586 649.3c-0.4 0.4-0.8 0.8-1.1 1.2-5.5 6.1-8.2 13.8-8.2 21.4 0 7.7 2.7 15.4 8.2 21.4 0.4 0.4 0.7 0.8 1.1 1.2l77.7 77.7c12.5 12.5 32.8 12.5 45.3 0s12.5-32.8 0-45.3L685.8 704H831c35.6 0 64.5 29.3 64 65-0.5 35.1-29.8 63-65 63h-30c-17.7 0-32 14.3-32 32s14.3 32 32 32h29.6c70.6 0 129-56.6 129.4-127.3 0.4-70.9-57.2-128.7-128-128.7z" p-id="1501"></path></svg>