<?xml version="1.0" standalone="no"?><!DOCTYPE svg PUBLIC "-//W3C//DTD SVG 1.1//EN" "http://www.w3.org/Graphics/SVG/1.1/DTD/svg11.dtd"><svg class="icon" width="330px" height="330.00px" viewBox="0 0 1024 1024" version="1.1" xmlns="http://www.w3.org/2000/svg"><path d="M512 905.846154C275.692308 668.770462 157.538462 484.962462 157.538462 354.461538 157.538462 158.700308 316.238769 0 512 0s354.461538 158.700308 354.461538 354.461538c0 130.500923-118.153846 314.308923-354.461538 551.384616z m0-452.923077a98.461538 98.461538 0 1 0-0.019692-196.942769A98.461538 98.461538 0 0 0 512 452.923077zM157.538462 945.230769h708.923076v78.769231H157.538462v-78.769231z m354.461538-39.384615C275.692308 668.770462 157.538462 484.962462 157.538462 354.461538 157.538462 158.700308 316.238769 0 512 0s354.461538 158.700308 354.461538 354.461538c0 130.500923-118.153846 314.308923-354.461538 551.384616z m275.692308-551.384616c0-152.260923-123.431385-275.692308-275.692308-275.692307s-275.692308 123.431385-275.692308 275.692307c0 93.952 90.820923 243.456 275.692308 438.429539C696.871385 597.917538 787.692308 448.413538 787.692308 354.461538z m-275.692308 177.23077c-97.890462 0-177.230769-79.340308-177.230769-177.23077s79.340308-177.230769 177.230769-177.230769 177.230769 79.340308 177.230769 177.230769-79.340308 177.230769-177.230769 177.23077z m0-78.769231a98.461538 98.461538 0 1 0-0.019692-196.942769A98.461538 98.461538 0 0 0 512 452.923077z" /></svg>