<?xml version="1.0" standalone="no"?><!DOCTYPE svg PUBLIC "-//W3C//DTD SVG 1.1//EN" "http://www.w3.org/Graphics/SVG/1.1/DTD/svg11.dtd"><svg class="icon" width="330px" height="330.00px" viewBox="0 0 1024 1024" version="1.1" xmlns="http://www.w3.org/2000/svg"><path d="M481.792 1006.08H78.848c-32.768 0-59.392-26.624-59.392-59.392V78.848C19.456 46.592 46.08 19.968 78.848 19.968h402.944c32.768 0 59.392 26.624 59.392 59.392V947.2c-0.512 32.256-27.136 58.88-59.392 58.88zM78.848 76.288c-1.536 0-3.072 1.024-3.072 3.072V947.2c0 1.536 1.024 2.56 3.072 2.56h402.944c1.536 0 3.072-1.024 3.072-2.56V78.848c0-1.536-1.024-3.072-3.072-3.072H78.848zM326.656 218.624c0-16.896 13.824-31.232 31.232-31.232H389.12c16.896 0 31.232 13.824 31.232 31.232v31.232c0 16.896-13.824 31.232-31.232 31.232h-31.232c-16.896 0-31.232-13.824-31.232-31.232v-31.232zM326.656 427.52c0-16.896 13.824-31.232 31.232-31.232H389.12c16.896 0 31.232 13.824 31.232 31.232v33.792c0 16.896-13.824 31.232-31.232 31.232h-31.232c-16.896 0-31.232-13.824-31.232-31.232v-33.792zM326.656 636.928c0-16.896 13.824-31.232 31.232-31.232H389.12c16.896 0 31.232 13.824 31.232 31.232v31.232c0 16.896-13.824 31.232-31.232 31.232h-31.232c-16.896 0-31.232-13.824-31.232-31.232v-31.232zM140.8 218.624c0-16.896 13.824-31.232 31.232-31.232h31.232c16.896 0 31.232 13.824 31.232 31.232v31.232c0 16.896-13.824 31.232-31.232 31.232h-31.232c-16.896 0-31.232-13.824-31.232-31.232v-31.232zM140.8 427.52c0-16.896 13.824-31.232 31.232-31.232h31.232c16.896 0 31.232 13.824 31.232 31.232v33.792c0 16.896-13.824 31.232-31.232 31.232h-31.232c-16.896 0-31.232-13.824-31.232-31.232v-33.792zM140.8 636.928c0-16.896 13.824-31.232 31.232-31.232h31.232c16.896 0 31.232 13.824 31.232 31.232v31.232c0 16.896-13.824 31.232-31.232 31.232h-31.232c-16.896 0-31.232-13.824-31.232-31.232v-31.232zM950.784 1006.08h-47.104c-30.208 0-54.784-24.576-54.784-54.784v-139.776h-104.448v139.776c0 30.208-24.576 54.784-54.784 54.784h-47.104c-30.208 0-54.784-24.576-54.784-54.784v-368.128c0-30.208 24.576-54.784 54.784-54.784h308.224c30.208 0 54.784 24.576 54.784 54.784v368.128c0 30.208-24.576 54.784-54.784 54.784z m-45.568-56.32h44.032v-365.568h-305.152v365.568h44.032v-139.776c0-30.208 24.576-54.784 54.784-54.784H849.92c30.208 0 54.784 24.576 54.784 54.784v139.776z" /></svg>