<?xml version="1.0" standalone="no"?><!DOCTYPE svg PUBLIC "-//W3C//DTD SVG 1.1//EN" "http://www.w3.org/Graphics/SVG/1.1/DTD/svg11.dtd"><svg class="icon" width="330px" height="330.00px" viewBox="0 0 1024 1024" version="1.1" xmlns="http://www.w3.org/2000/svg"><path d="M902.262154 472.615385h-315.076923L551.384615 78.769231h315.076923l35.800616 393.846154z m7.168 78.76923L945.230769 945.230769H630.153846l-35.800615-393.846154h315.076923zM472.615385 78.769231l78.76923 866.461538H78.769231L157.538462 78.769231h315.076923zM902.262154 472.615385h-315.076923L551.384615 78.769231h315.076923l35.800616 393.846154zM794.525538 157.538462H637.636923l21.484308 236.307692h156.888615L794.525538 157.538462z m114.904616 393.846153L945.230769 945.230769H630.153846l-35.800615-393.846154h315.076923z m-71.936 78.769231h-156.888616l21.484308 236.307692h156.888616l-21.484308-236.307692z m-408.162462-157.538461L400.679385 157.538462h-171.204923l-28.652308 315.076923h228.509538z m7.148308 78.76923H193.673846L165.021538 866.461538h300.11077l-28.652308-315.076923zM472.615385 78.769231l78.76923 866.461538H78.769231L157.538462 78.769231h315.076923z" /></svg>