<?xml version="1.0" standalone="no"?><!DOCTYPE svg PUBLIC "-//W3C//DTD SVG 1.1//EN" "http://www.w3.org/Graphics/SVG/1.1/DTD/svg11.dtd"><svg class="icon" width="300px" height="300.00px" viewBox="0 0 1024 1024" version="1.1" xmlns="http://www.w3.org/2000/svg"><path d="M257.113869 582.097498l0 324.978513 152.932088 0L410.045957 582.097498l-76.468602-63.72537L257.113869 582.097498 257.113869 582.097498zM2.223644 907.07601l152.932088 0L155.155732 658.55996 2.223644 779.633457 2.223644 907.07601 2.223644 907.07601zM766.886131 505.627872l0 401.448138L919.823336 907.07601 919.823336 378.186342 766.886131 505.627872 766.886131 505.627872zM512.00307 664.933111l0 242.142899 152.930041 0L664.933111 588.465532 543.860638 690.423669 512.00307 664.933111 512.00307 664.933111zM1021.775332 116.92399 728.655412 116.92399l121.073496 114.699322-312.24142 254.889201L333.576331 314.460971 2.223644 575.723324l0 114.699322 331.352687-261.263375L543.860638 601.212858l375.962697-305.868269 101.95302 95.583962L1021.776356 116.92399 1021.775332 116.92399zM1021.775332 116.92399" /></svg>