<?xml version="1.0" standalone="no"?><!DOCTYPE svg PUBLIC "-//W3C//DTD SVG 1.1//EN" "http://www.w3.org/Graphics/SVG/1.1/DTD/svg11.dtd"><svg class="icon" width="300px" height="300.00px" viewBox="0 0 1024 1024" version="1.1" xmlns="http://www.w3.org/2000/svg"><path fill="#ffffff" d="M807.822222 170.666667H216.177778c-26.595556 0-45.511111 18.915556-45.511111 45.511111v591.644444c0 26.595556 18.915556 45.511111 45.511111 45.511111h591.644444c26.595556 0 45.511111-18.915556 45.511111-45.511111V216.177778c0-26.595556-18.915556-45.511111-45.511111-45.511111zM345.173333 732.017778h-87.182222V671.288889L341.333333 599.182222v132.693334h3.84z m125.155556 0h-87.182222v-170.666667l37.973333-30.293333 49.351111 41.671111v159.288889z m125.155555 3.697778H512v-128.995556l18.915556 15.217778 64.426666-60.728889v174.506667h0.142222z m128.853334-3.697778h-83.484445V523.377778l75.804445-64.426667 7.537778 11.377778v261.688889h0.142222z m41.813333-295.822222l-49.351111-53.048889L530.915556 546.133333l-106.24-87.182222-166.826667 140.373333v-60.728888l166.826667-144.071112 106.24 94.862223L682.666667 352.711111l-60.728889-60.728889h144.071111v144.213334h0.142222z" /></svg>