<?xml version="1.0" standalone="no"?><!DOCTYPE svg PUBLIC "-//W3C//DTD SVG 1.1//EN" "http://www.w3.org/Graphics/SVG/1.1/DTD/svg11.dtd"><svg t="1557283054112" class="icon" style="" viewBox="0 0 1024 1024" version="1.1" xmlns="http://www.w3.org/2000/svg" p-id="5685" xmlns:xlink="http://www.w3.org/1999/xlink" width="32" height="32"><defs><style type="text/css"></style></defs><path d="M769.71455 958.708971H254.28545c-37.902238 0-68.724221-30.821983-68.724221-68.724221v-86.055958c0-59.59633 21.979594-116.78482 61.878303-161.045883l117.901247-130.820487-117.967762-130.970914c-39.86494-44.252877-61.810764-101.424994-61.810764-160.979368v-86.097914c0-37.894052 30.821983-68.724221 68.724221-68.724221h515.429099c37.902238 0 68.724221 30.830169 68.724221 68.724221v86.097914c0 59.546188-21.945825 116.718305-61.794392 160.979368L658.659221 512.062422l117.91762 130.828674c39.898709 44.261063 61.86193 101.449553 61.86193 161.037696v86.055958c-0.001023 37.903262-30.821983 68.724221-68.724221 68.724221zM254.28545 134.014226v86.097914c0 42.540885 15.687284 83.380012 44.160779 114.989941l138.689713 153.974837c11.778254 13.07069 11.761881 32.926924-0.016373 45.997613l-138.638547 153.823388c-28.506241 31.619138-44.194548 72.465428-44.194548 115.031897v86.055958h515.429099v-86.055958c0-42.566468-15.687284-83.412758-44.177152-115.031897l-138.655943-153.823388c-11.778254-13.07069-11.794627-32.926924-0.016373-45.997613l138.706085-153.974837c28.472472-31.619138 44.143383-72.457242 44.143383-114.989941v-86.097914H254.28545z" p-id="5686" ></path><path d="M683.814134 735.350904H340.195076v51.54291c0 18.977213 15.384385 34.361599 34.361599 34.361599h274.89586c18.977213 0 34.361599-15.384385 34.361599-34.361599V735.350904z" p-id="5687" ></path></svg>