<?xml version="1.0" standalone="no"?><!DOCTYPE svg PUBLIC "-//W3C//DTD SVG 1.1//EN" "http://www.w3.org/Graphics/SVG/1.1/DTD/svg11.dtd"><svg class="icon" width="300px" height="299.71px" viewBox="0 0 1025 1024" version="1.1" xmlns="http://www.w3.org/2000/svg"><path  d="M363.203925 240.64c71.68 0 131.413333-54.613333 131.413334-119.466667 0-66.56-58.026667-119.466667-131.413334-119.466666-71.68 0-131.413333 54.613333-131.413333 119.466666 1.706667 66.56 59.733333 119.466667 131.413333 119.466667z m660.48 542.72l-64.853333-179.2c-3.413333-10.24-15.36-15.36-25.6-11.946667l-39.253333 11.946667-3.413334-10.24c-11.946667-32.426667-39.253333-54.613333-71.68-64.853333L786.457259 365.226667c-3.413333-20.48-20.48-35.84-40.96-42.666667-3.413333-1.706667-6.826667-1.706667-10.24-3.413333l-221.866667-56.32c-30.72-13.653333-66.56-15.36-100.693333-5.12l-23.893334 6.826666c-35.84 11.946667-64.853333 35.84-78.506666 66.56l-100.693334 136.533334-162.133333 37.546666c-34.133333 8.533333-52.906667 39.253333-46.08 69.973334l1.706667 6.826666c8.533333 30.72 42.666667 49.493333 75.093333 40.96L269.337259 580.266667c10.24-3.413333 20.48-8.533333 29.013333-15.36 5.12-3.413333 10.24-8.533333 13.653333-13.653334l30.72-40.96 40.96 109.226667c6.826667 17.066667 17.066667 32.426667 29.013334 44.373333l-165.546667 247.466667c-20.48 30.72-8.533333 73.386667 25.6 92.16l1.706667 1.706667c34.133333 18.773333 78.506667 8.533333 98.986666-22.186667l163.84-245.76L692.590592 989.866667c18.773333 32.426667 63.146667 42.666667 97.28 25.6l3.413333-1.706667c34.133333-17.066667 47.786667-58.026667 27.306667-88.746667l-29.013333-47.786666 220.16-68.266667c10.24-5.12 15.36-15.36 11.946666-25.6z m-344.746666-122.88l3.413333 10.24-15.36 5.12-22.186667-35.84c20.48-30.72 25.6-68.266667 11.946667-104.106667l-44.373333-117.76 52.906666 13.653334 25.6 124.586666c0 3.413333 1.706667 6.826667 3.413334 10.24-18.773333 25.6-27.306667 61.44-15.36 93.866667z m34.133333 88.746667l-13.653333-39.253334 20.48-6.826666 49.493333 136.533333-56.32-90.453333z m-10.24-85.333334l-3.413333-10.24c-8.533333-23.893333-5.12-49.493333 8.533333-69.973333 13.653333 11.946667 34.133333 18.773333 54.613333 15.36l10.24-1.706667c25.6-5.12 44.373333-23.893333 47.786667-47.786666 22.186667 8.533333 40.96 25.6 49.493333 49.493333l3.413334 10.24-170.666667 54.613333z m238.933333 136.533334l-54.613333-150.186667 20.48-6.826667 54.613333 150.186667-20.48 6.826667z" /></svg>