<?xml version="1.0" standalone="no"?><!DOCTYPE svg PUBLIC "-//W3C//DTD SVG 1.1//EN" "http://www.w3.org/Graphics/SVG/1.1/DTD/svg11.dtd"><svg t="1557283066883" class="icon" style="" viewBox="0 0 1024 1024" version="1.1" xmlns="http://www.w3.org/2000/svg" p-id="5902" xmlns:xlink="http://www.w3.org/1999/xlink" width="32" height="32"><defs><style type="text/css"></style></defs><path d="M636.416 570.368H387.584c-12.8 0-23.552 10.24-23.552 23.552 0 12.8 10.24 23.552 23.552 23.552h248.832c12.8 0 23.552-10.24 23.552-23.552s-10.752-23.552-23.552-23.552z m77.824-312.32H309.76c-12.8 0-23.552 10.24-23.552 23.552 0 12.8 10.24 23.552 23.552 23.552h404.992c12.8 0 23.552-10.24 23.552-23.552-0.512-12.8-10.752-23.552-24.064-23.552z m0 156.16H309.76c-12.8 0-23.552 10.24-23.552 23.552 0 12.8 10.24 23.552 23.552 23.552h404.992c12.8 0 23.552-10.24 23.552-23.552-0.512-13.312-10.752-23.552-24.064-23.552z" p-id="5903" ></path><path d="M811.008 90.112h-599.04c-67.072 0-121.856 54.784-121.856 121.856v599.04c0 67.584 54.784 122.368 121.856 122.368h599.04c67.584 0 122.368-54.784 122.368-122.368v-599.04c0.512-67.072-54.784-121.856-122.368-121.856z m75.776 720.896c0 41.472-33.792 75.776-75.776 75.776h-599.04c-41.472 0-75.264-33.792-75.264-75.776V616.96h63.488L378.88 773.632h266.24l176.64-156.16h65.024v193.536z m0-240.64H803.84L627.2 726.528H396.288l-178.176-156.16h-80.896v-358.4c0-41.472 33.792-75.264 75.264-75.264h599.04c41.472 0 75.776 33.792 75.776 75.264v358.4z" p-id="5904" ></path></svg>