<?xml version="1.0" standalone="no"?><!DOCTYPE svg PUBLIC "-//W3C//DTD SVG 1.1//EN" "http://www.w3.org/Graphics/SVG/1.1/DTD/svg11.dtd"><svg t="1557283043960" class="icon" style="" viewBox="0 0 1024 1024" version="1.1" xmlns="http://www.w3.org/2000/svg" p-id="5467" xmlns:xlink="http://www.w3.org/1999/xlink" width="32" height="32"><defs><style type="text/css"></style></defs><path d="M517.78 202.298c-71.108 0-129.016 56-129.016 124.898 0 68.9 57.896 124.896 129.016 124.896 71.112 0 129.022-55.998 129.022-124.896-0.002-68.898-57.912-124.898-129.022-124.898z m0 201.524c-42.116 0-76.38-34.048-76.38-75.9 0-41.848 34.264-75.896 76.38-75.896 42.122 0 76.384 34.046 76.384 75.896 0 41.852-34.264 75.9-76.384 75.9z" p-id="5468" ></path><path d="M717.848 101.89c-53.712-51.658-124.79-80.094-200.068-80.094-74.99 0-145.876 28.436-199.588 80.094-55.762 53.614-86.202 125.228-85.616 201.596 0 1.214 0.092 15.266 3.328 37.288 18.742 108.562 105.924 234.076 156.996 300.258a51.166 51.166 0 0 0 5.196 6.314c43.526 52.682 87.4 87.732 89.296 89.216l30.564 24.294 30.444-24.482c1.89-1.484 45.622-36.948 89.074-89.442a54.2 54.2 0 0 0 5.224-6.474c62.126-80.864 139.36-198.056 156.82-299.51 3.366-23.13 3.456-37.134 3.456-38.666 0.584-75.812-29.666-147.064-85.126-200.392z m32.166 236.42l-0.056 0.392c-16.106 93.556-94.558 206.51-140.286 265.964a23.726 23.726 0 0 1-3.006 3.696c-38.622 46.888-77.436 78.32-79.078 79.638l-9.74 7.844-9.792-7.776c-1.642-1.304-40.512-32.354-79.146-79.272a25.796 25.796 0 0 1-2.936-3.576c-45.636-58.97-124.068-171.344-140.364-265.698l-0.064-0.396c-2.766-18.9-2.796-30.692-2.796-31.186-0.458-61.43 23.382-119.598 67.132-163.674 44.674-45.01 104.304-69.796 167.898-69.796 63.86 0 123.622 24.774 168.28 69.76 43.5 43.818 67.206 101.708 66.758 163.014-0.002 0.378-0.034 12.122-2.804 31.066z" p-id="5469" ></path><path d="M923.79 812H101.836c-22.922 0-41.57-16.886-41.57-37.992 0-21.114 18.648-38.008 41.57-38.008h113.3c6.954 0 13.502-2.45 18.438-7.64 4.896-5.144 7.718-11.904 7.744-19.164a28.026 28.026 0 0 0-7.748-19.274c-4.938-5.192-11.488-7.922-18.574-7.922h-113.16c-51.95 0-94.21 42.432-94.21 94.008 0 51.564 42.26 93.992 94.21 93.992h821.954c22.922 0 41.57 16.886 41.57 37.992 0 21.114-18.648 38.008-41.57 38.008H195.73c-16.306 0-29.62 12.782-29.692 27.98 0.076 15.242 13.394 28.02 29.692 28.02h728.06C975.738 1002 1018 958.568 1018 906.992 1018 855.428 975.738 812 923.79 812z" p-id="5470" ></path></svg>