<?xml version="1.0" standalone="no"?><!DOCTYPE svg PUBLIC "-//W3C//DTD SVG 1.1//EN" "http://www.w3.org/Graphics/SVG/1.1/DTD/svg11.dtd"><svg t="1556539477024" class="icon" style="" viewBox="0 0 1024 1024" version="1.1" xmlns="http://www.w3.org/2000/svg" p-id="2521" xmlns:xlink="http://www.w3.org/1999/xlink" width="300" height="300"><defs><style type="text/css">html, * { user-select: text !important; }
</style></defs><path d="M283.362184 823.035966 197.829136 823.035966c-51.077306 0-92.638887-41.393759-92.638887-92.263333L105.190249 202.27489c0-50.868551 41.561581-92.26231 92.638887-92.26231 11.815093 0 21.400403-9.585309 21.400403-21.400403s-9.585309-21.401426-21.400403-21.401426c-74.679863 0-135.439692 60.594053-135.439692 135.064139l0 528.497743c0 74.471109 60.760852 135.064139 135.439692 135.064139l85.533049 0c11.815093 0 21.400403-9.585309 21.400403-21.401426C304.762587 832.621275 295.177278 823.035966 283.362184 823.035966z" p-id="2522"></path><path d="M728.13813 110.012579c51.062979 0 92.611258 41.393759 92.611258 92.26231l0 78.524424c0 11.815093 9.585309 21.401426 21.400403 21.401426s21.400403-9.586332 21.400403-21.401426l0-78.524424c0-74.470085-60.746526-135.064139-135.412063-135.064139-11.815093 0-21.400403 9.586332-21.400403 21.401426S716.323037 110.012579 728.13813 110.012579z" p-id="2523"></path><path d="M283.362184 110.012579l69.901023 0c11.815093 0 21.400403-9.585309 21.400403-21.400403s-9.585309-21.401426-21.400403-21.401426l-69.901023 0c-11.815093 0-21.400403 9.586332-21.400403 21.401426S271.547091 110.012579 283.362184 110.012579z" p-id="2524"></path><path d="M432.10895 110.012579l69.901023 0c11.815093 0 21.400403-9.585309 21.400403-21.400403s-9.585309-21.401426-21.400403-21.401426l-69.901023 0c-11.815093 0-21.400403 9.586332-21.400403 21.401426S420.293857 110.012579 432.10895 110.012579z" p-id="2525"></path><path d="M580.840366 110.012579l69.914326 0c11.815093 0 21.400403-9.585309 21.400403-21.400403s-9.585309-21.401426-21.400403-21.401426l-69.914326 0c-11.815093 0-21.400403 9.586332-21.400403 21.401426S569.025273 110.012579 580.840366 110.012579z" p-id="2526"></path><path d="M648.121725 331.905272c-173.171038 0-313.514413 139.884934-313.514413 312.427662 0 172.571381 140.343375 312.456315 313.514413 312.456315 173.114756 0 313.487807-139.884934 313.487807-312.456315C961.609533 471.790206 821.236482 331.905272 648.121725 331.905272zM864.958262 683.207313 632.015909 683.207313c-2.409886 1.853208-5.294586 3.14769-8.569166 3.14769-4.123924 0-7.774057-1.796926-10.366092-4.596691-4.835122-2.284019-8.234545-7.119141-8.234545-12.818957 0-4.01136 1.673106-7.607258 4.332678-10.197246L609.178785 506.064824c0-7.885598 6.381337-14.266935 14.266935-14.266935s14.266935 6.381337 14.266935 14.266935l0 148.607596 227.243561 0c7.885598 0 14.265912 6.381337 14.265912 14.265912C879.224174 676.824953 872.84386 683.207313 864.958262 683.207313z" p-id="2527"></path><path d="M260.554736 283.279808l171.567517 0c11.815093 0 21.400403-9.585309 21.400403-21.400403s-9.585309-21.400403-21.400403-21.400403l-171.567517 0c-11.815093 0-21.401426 9.585309-21.401426 21.400403S248.739643 283.279808 260.554736 283.279808z" p-id="2528"></path><path d="M352.287997 349.014952c0-11.815093-9.585309-21.400403-21.400403-21.400403l-70.331835 0c-11.815093 0-21.401426 9.585309-21.401426 21.400403s9.586332 21.401426 21.401426 21.401426l70.331835 0C342.701664 370.416378 352.287997 360.830045 352.287997 349.014952z" p-id="2529"></path></svg>